G04*
G04 #@! TF.GenerationSoftware,Altium Limited,Altium Designer,26.9.1 (10)*
G04*
G04 Layer_Color=8421504*
G04 Board_Origin=0|0*
%FSLAX44Y44*%
%MOMM*%
G71*
G04*
G04 #@! TF.SameCoordinates,DF1A3F49-4B7C-4399-8544-521486AC94AF*
G04*
G04*
G04 #@! TF.FilePolarity,Positive*
G04*
G01*
G75*
%ADD15R,1.4750X0.3000*%
%ADD16R,1.4700X0.9700*%
%ADD17R,1.0000X1.4000*%
%ADD18R,0.5000X1.1000*%
%ADD19R,0.3000X1.4750*%
%ADD20R,1.1000X0.5000*%
%ADD21R,1.4000X1.0000*%
%ADD22R,0.9700X1.4700*%
%ADD23R,0.6000X0.6200*%
%ADD24R,1.5250X0.6500*%
%ADD25R,0.6200X0.6000*%
%ADD26R,1.0500X1.2000*%
%ADD27R,1.2000X1.0500*%
%ADD28R,0.6000X1.2000*%
%ADD29R,0.7000X1.0000*%
%ADD30R,1.2000X0.6000*%
%ADD31R,1.2000X1.0000*%
%ADD32R,0.3000X1.2000*%
D15*
X956880Y393880D02*
D03*
Y408880D02*
D03*
X872120Y353880D02*
D03*
Y358880D02*
D03*
X956880D02*
D03*
Y403880D02*
D03*
Y378880D02*
D03*
Y398880D02*
D03*
Y383880D02*
D03*
Y373880D02*
D03*
X872120Y408880D02*
D03*
Y403880D02*
D03*
Y398880D02*
D03*
Y393880D02*
D03*
Y388880D02*
D03*
Y383880D02*
D03*
Y378880D02*
D03*
Y373880D02*
D03*
Y368880D02*
D03*
Y363880D02*
D03*
X956880Y353880D02*
D03*
Y363880D02*
D03*
Y368880D02*
D03*
Y388880D02*
D03*
D16*
X977000Y443700D02*
D03*
X958000D02*
D03*
X878000Y444700D02*
D03*
X851000Y355700D02*
D03*
X977000Y460300D02*
D03*
X958000D02*
D03*
X878000Y461300D02*
D03*
X851000Y372300D02*
D03*
X958000Y304700D02*
D03*
Y321300D02*
D03*
D17*
X1102500Y312000D02*
D03*
X1037500Y436000D02*
D03*
X1056500D02*
D03*
X1037500Y396000D02*
D03*
X1056500D02*
D03*
X1083500Y312000D02*
D03*
D18*
X999000Y389750D02*
D03*
X890000Y312750D02*
D03*
X913000D02*
D03*
X936000D02*
D03*
Y289250D02*
D03*
X913000D02*
D03*
X890000D02*
D03*
X999000Y366250D02*
D03*
D19*
X942000Y423760D02*
D03*
X902000D02*
D03*
X907000D02*
D03*
X937000Y339000D02*
D03*
Y423760D02*
D03*
X932000D02*
D03*
X927000D02*
D03*
X922000D02*
D03*
X917000D02*
D03*
X912000D02*
D03*
X897000D02*
D03*
X892000D02*
D03*
X887000D02*
D03*
Y339000D02*
D03*
X892000D02*
D03*
X897000D02*
D03*
X902000D02*
D03*
X907000D02*
D03*
X912000D02*
D03*
X917000D02*
D03*
X922000D02*
D03*
X927000D02*
D03*
X932000D02*
D03*
X942000D02*
D03*
D20*
X767750Y362000D02*
D03*
X744250D02*
D03*
D21*
X752000Y297500D02*
D03*
X731000D02*
D03*
X773000D02*
D03*
X977000Y415500D02*
D03*
X991000Y268500D02*
D03*
X1011000D02*
D03*
X752000Y278500D02*
D03*
X731000D02*
D03*
X773000D02*
D03*
X977000Y396500D02*
D03*
X1011000Y249500D02*
D03*
X991000D02*
D03*
X662000Y339500D02*
D03*
Y358500D02*
D03*
D22*
X707300Y320000D02*
D03*
X675300D02*
D03*
X690700D02*
D03*
X997300Y292000D02*
D03*
X1016300Y348000D02*
D03*
X1101300Y225000D02*
D03*
X999700Y348000D02*
D03*
X980700Y292000D02*
D03*
X1084700Y225000D02*
D03*
X658700Y320000D02*
D03*
D23*
X708600Y305000D02*
D03*
X699400D02*
D03*
D24*
X710120Y289050D02*
D03*
X655880Y250950D02*
D03*
X710120Y263650D02*
D03*
Y276350D02*
D03*
Y250950D02*
D03*
X655880Y289050D02*
D03*
Y276350D02*
D03*
Y263650D02*
D03*
D25*
X942000Y452400D02*
D03*
X896000Y461600D02*
D03*
Y452400D02*
D03*
X942000Y461600D02*
D03*
X636000Y274600D02*
D03*
Y265400D02*
D03*
D26*
X640000Y338500D02*
D03*
Y357500D02*
D03*
D27*
X1037500Y376000D02*
D03*
Y416000D02*
D03*
X1056500D02*
D03*
Y376000D02*
D03*
D28*
X957750Y261750D02*
D03*
X894250D02*
D03*
X901870D02*
D03*
X950130D02*
D03*
D29*
X1103750Y246500D02*
D03*
Y291500D02*
D03*
X1082250D02*
D03*
Y246500D02*
D03*
D30*
X976500Y320000D02*
D03*
X1001500Y329500D02*
D03*
Y310500D02*
D03*
X976500D02*
D03*
Y329500D02*
D03*
D31*
X927500Y450500D02*
D03*
X910500Y463500D02*
D03*
Y450500D02*
D03*
X927500Y463500D02*
D03*
D32*
X928540Y261750D02*
D03*
X918380D02*
D03*
X923460D02*
D03*
X908220D02*
D03*
X913300D02*
D03*
X933620D02*
D03*
X938700D02*
D03*
X943780D02*
D03*
M02*
