G04*
G04 #@! TF.GenerationSoftware,Altium Limited,Altium Designer,26.9.1 (10)*
G04*
G04 Layer_Color=8388736*
G04 Board_Origin=0|0*
%FSLAX44Y44*%
%MOMM*%
G71*
G04*
G04 #@! TF.SameCoordinates,DF1A3F49-4B7C-4399-8544-521486AC94AF*
G04*
G04*
G04 #@! TF.FilePolarity,Negative*
G04*
G01*
G75*
%ADD33R,1.6782X0.5032*%
%ADD34R,1.6732X1.1732*%
%ADD35R,1.2032X1.6032*%
%ADD36R,0.7032X1.3032*%
%ADD37R,0.5032X1.6782*%
%ADD38R,1.3032X0.7032*%
%ADD39R,1.6032X1.2032*%
%ADD40R,1.1732X1.6732*%
%ADD41R,0.8032X0.8232*%
%ADD42R,1.7282X0.8532*%
%ADD43R,0.8232X0.8032*%
%ADD44R,1.2532X1.4032*%
%ADD45R,1.4032X1.2532*%
%ADD46R,0.8032X1.4032*%
%ADD47R,0.9032X1.2032*%
%ADD48R,1.4032X0.8032*%
%ADD49R,1.4032X1.2032*%
%ADD50R,0.5032X1.4032*%
%ADD51R,1.7782X1.7782*%
%ADD52C,1.7782*%
%ADD53C,1.9282*%
%ADD54O,1.3032X2.8032*%
%ADD55O,1.3032X2.3032*%
%ADD56O,4.2032X16.2032*%
%ADD57R,1.9282X1.9282*%
%ADD58R,1.9282X1.9282*%
%ADD59C,0.9032*%
D33*
X956880Y393880D02*
D03*
Y408880D02*
D03*
X872120Y353880D02*
D03*
Y358880D02*
D03*
X956880D02*
D03*
Y403880D02*
D03*
Y378880D02*
D03*
Y398880D02*
D03*
Y383880D02*
D03*
Y373880D02*
D03*
X872120Y408880D02*
D03*
Y403880D02*
D03*
Y398880D02*
D03*
Y393880D02*
D03*
Y388880D02*
D03*
Y383880D02*
D03*
Y378880D02*
D03*
Y373880D02*
D03*
Y368880D02*
D03*
Y363880D02*
D03*
X956880Y353880D02*
D03*
Y363880D02*
D03*
Y368880D02*
D03*
Y388880D02*
D03*
D34*
X977000Y443700D02*
D03*
X958000D02*
D03*
X878000Y444700D02*
D03*
X851000Y355700D02*
D03*
X977000Y460300D02*
D03*
X958000D02*
D03*
X878000Y461300D02*
D03*
X851000Y372300D02*
D03*
X958000Y304700D02*
D03*
Y321300D02*
D03*
D35*
X1102500Y312000D02*
D03*
X1037500Y436000D02*
D03*
X1056500D02*
D03*
X1037500Y396000D02*
D03*
X1056500D02*
D03*
X1083500Y312000D02*
D03*
D36*
X999000Y389750D02*
D03*
X890000Y312750D02*
D03*
X913000D02*
D03*
X936000D02*
D03*
Y289250D02*
D03*
X913000D02*
D03*
X890000D02*
D03*
X999000Y366250D02*
D03*
D37*
X942000Y423760D02*
D03*
X902000D02*
D03*
X907000D02*
D03*
X937000Y339000D02*
D03*
Y423760D02*
D03*
X932000D02*
D03*
X927000D02*
D03*
X922000D02*
D03*
X917000D02*
D03*
X912000D02*
D03*
X897000D02*
D03*
X892000D02*
D03*
X887000D02*
D03*
Y339000D02*
D03*
X892000D02*
D03*
X897000D02*
D03*
X902000D02*
D03*
X907000D02*
D03*
X912000D02*
D03*
X917000D02*
D03*
X922000D02*
D03*
X927000D02*
D03*
X932000D02*
D03*
X942000D02*
D03*
D38*
X767750Y362000D02*
D03*
X744250D02*
D03*
D39*
X752000Y297500D02*
D03*
X731000D02*
D03*
X773000D02*
D03*
X977000Y415500D02*
D03*
X991000Y268500D02*
D03*
X1011000D02*
D03*
X752000Y278500D02*
D03*
X731000D02*
D03*
X773000D02*
D03*
X977000Y396500D02*
D03*
X1011000Y249500D02*
D03*
X991000D02*
D03*
X662000Y339500D02*
D03*
Y358500D02*
D03*
D40*
X707300Y320000D02*
D03*
X675300D02*
D03*
X690700D02*
D03*
X997300Y292000D02*
D03*
X1016300Y348000D02*
D03*
X1101300Y225000D02*
D03*
X999700Y348000D02*
D03*
X980700Y292000D02*
D03*
X1084700Y225000D02*
D03*
X658700Y320000D02*
D03*
D41*
X708600Y305000D02*
D03*
X699400D02*
D03*
D42*
X710120Y289050D02*
D03*
X655880Y250950D02*
D03*
X710120Y263650D02*
D03*
Y276350D02*
D03*
Y250950D02*
D03*
X655880Y289050D02*
D03*
Y276350D02*
D03*
Y263650D02*
D03*
D43*
X942000Y452400D02*
D03*
X896000Y461600D02*
D03*
Y452400D02*
D03*
X942000Y461600D02*
D03*
X636000Y274600D02*
D03*
Y265400D02*
D03*
D44*
X640000Y338500D02*
D03*
Y357500D02*
D03*
D45*
X1037500Y376000D02*
D03*
Y416000D02*
D03*
X1056500D02*
D03*
Y376000D02*
D03*
D46*
X957750Y261750D02*
D03*
X894250D02*
D03*
X901870D02*
D03*
X950130D02*
D03*
D47*
X1103750Y246500D02*
D03*
Y291500D02*
D03*
X1082250D02*
D03*
Y246500D02*
D03*
D48*
X976500Y320000D02*
D03*
X1001500Y329500D02*
D03*
Y310500D02*
D03*
X976500D02*
D03*
Y329500D02*
D03*
D49*
X927500Y450500D02*
D03*
X910500Y463500D02*
D03*
Y450500D02*
D03*
X927500Y463500D02*
D03*
D50*
X928540Y261750D02*
D03*
X918380D02*
D03*
X923460D02*
D03*
X908220D02*
D03*
X913300D02*
D03*
X933620D02*
D03*
X938700D02*
D03*
X943780D02*
D03*
D51*
X831400Y247400D02*
D03*
D52*
X806000D02*
D03*
Y222000D02*
D03*
X780600D02*
D03*
Y247400D02*
D03*
X831400Y222000D02*
D03*
D53*
X1047000Y298000D02*
D03*
Y247200D02*
D03*
Y221800D02*
D03*
Y323400D02*
D03*
Y272600D02*
D03*
X691000Y362000D02*
D03*
D54*
X882800Y222000D02*
D03*
X969200D02*
D03*
D55*
X882820Y256670D02*
D03*
X969180D02*
D03*
D56*
X1117000Y444725D02*
D03*
D57*
X1047000Y348800D02*
D03*
D58*
X716400Y362000D02*
D03*
D59*
X622000Y284000D02*
D03*
X577000Y284000D02*
D03*
M02*
