M48
;Layer_Color=9474304
;FILE_FORMAT=2:5
INCH
;TYPE=PLATED
T01F00S00C0.01378
T03F00S00C0.04134
T04F00S00C0.04528
%
T01
X0227165Y0111811
X0244882Y0111811
X0253150Y0119291
X0268898
X0264961Y0111417
X0272835
X0268898Y0103543
X0264961Y0095669
X0272835
X0268898Y0087795
X0261024
X0253150
X0276772
X0284646
X0292520
X0300394
X0296457Y0095669
X0288583
X0287795Y0106299
X0288583Y0127165
X0296457
X0292520Y0135039
X0284646
X0276772
X0268898
Y0150787
X0261024
X0253150
X0276772
X0284646
X0292520
X0300394
X0308268
Y0135039
X0300394
X0312205Y0127165
X0312205Y0109449
X0317323Y0113386
X0324016Y0103543
X0331890
X0339764
X0335827Y0095669
X0343701
X0351575
X0359449Y0098032
X0370472
X0371260Y0087795
X0363386
X0355512
X0339764
X0335827Y0111417
X0343701
X0339764Y0119291
X0343701Y0127165
X0345276Y0135039
X0339764Y0135039
X0337795Y0132283
X0327953Y0129134
X0316142Y0135039
Y0150787
X0324016
X0349213Y0147244
Y0143307
X0367323Y0142913
X0368504Y0128347
X0355512Y0119291
X0375197Y0111417
X0398819
X0398031Y0093701
X0390158
X0387008Y0087795
X0394882
X0402756
X0406693Y0095669
X0418504Y0087795
Y0103543
X0422441Y0111417
X0430315
X0434252Y0103543
X0430315Y0095669
Y0127165
X0422441
X0418504Y0119291
Y0135039
X0420472Y0138583
X0423228Y0140945
X0434252Y0135039
X0438189Y0127165
X0406693
Y0142913
X0398819
X0383858Y0140157
X0385039Y0147638
Y0151181
X0384646Y0169291
X0393307Y0164173
X0398819Y0174409
X0402756Y0182284
X0410630
X0418504
X0414567Y0190158
X0406693
X0398819
X0384646Y0186614
X0377165
X0366535Y0172441
X0357480
X0359055Y0161417
X0351575Y0158661
X0327953
X0331890Y0166535
X0327953Y0174409
X0331890Y0182284
X0327953Y0190158
X0335827
X0345669Y0186614
T03
X0307323Y0087402
Y0097402
X0317323
X0327323
Y0087402
X0317323
T04
X0272047Y0142520
X0282047
X0412205Y0137323
Y0127323
Y0117323
Y0107323
Y0097323
Y0087323
M30
